<!-- Generated by IcoMoon.io -->
<svg version="1.1" xmlns="http://www.w3.org/2000/svg" width="1024" height="1024" viewBox="0 0 1024 1024">
<title></title>
<g id="icomoon-ignore">
</g>
<path fill="#fff" d="M512 789.82c-153.435 0-277.82-124.385-277.82-277.82s124.385-277.82 277.82-277.82c153.435 0 277.82 124.385 277.82 277.82s-124.385 277.82-277.82 277.82zM512 697.212c102.29 0 185.212-82.922 185.212-185.212 0-102.292-82.922-185.212-185.212-185.212-102.292 0-185.212 82.92-185.212 185.212 0 102.29 82.92 185.212 185.212 185.212z"></path>
<path fill="#fff" d="M789.82 187.878c-25.575 0-46.302 20.733-46.302 46.302s20.732 46.302 46.302 46.302c25.575 0 46.302-20.733 46.302-46.302s-20.732-46.302-46.302-46.302z"></path>
<path fill="#fff" d="M32.949 154.36c26.634-52.275 69.136-94.778 121.411-121.411 59.426-30.282 137.223-30.282 292.816-30.282h129.647c155.593 0 233.391 0 292.815 30.282 52.276 26.634 94.779 69.136 121.411 121.411 30.284 59.426 30.284 137.223 30.284 292.816v129.647c0 155.593 0 233.391-30.284 292.815-26.632 52.276-69.136 94.779-121.411 121.411-59.423 30.284-137.222 30.284-292.815 30.284h-129.647c-155.593 0-233.39 0-292.816-30.284-52.275-26.632-94.778-69.136-121.411-121.411-30.282-59.423-30.282-137.222-30.282-292.815v-129.647c0-155.593 0-233.39 30.282-292.816zM576.823 95.275h-129.647c-79.325 0-133.249 0.072-174.931 3.479-40.602 3.317-61.364 9.332-75.845 16.707-34.848 17.758-63.182 46.091-80.939 80.939-7.38 14.481-13.39 35.248-16.707 75.845-3.403 41.682-3.479 95.606-3.479 174.931v129.647c0 79.327 0.072 133.247 3.479 174.93 3.317 40.604 9.332 61.366 16.707 75.847 17.758 34.846 46.091 63.179 80.939 80.936 14.481 7.381 35.248 13.393 75.845 16.708 41.682 3.401 95.606 3.479 174.931 3.479h129.647c79.327 0 133.247-0.073 174.93-3.479 40.604-3.315 61.366-9.332 75.847-16.708 34.846-17.758 63.179-46.090 80.936-80.936 7.381-14.481 13.393-35.248 16.708-75.847 3.401-41.684 3.479-95.604 3.479-174.93v-129.647c0-79.325-0.073-133.249-3.479-174.931-3.315-40.602-9.332-61.364-16.708-75.845-17.758-34.848-46.090-63.182-80.936-80.939-14.481-7.38-35.248-13.39-75.847-16.707-41.684-3.403-95.604-3.479-174.93-3.479z"></path>
</svg>
