<!-- Generated by IcoMoon.io -->
<svg version="1.1" xmlns="http://www.w3.org/2000/svg" fill="#fff" width="1024" height="1024" viewBox="0 0 1024 1024">
<title></title>
<g id="icomoon-ignore">
</g>
<path d="M922.058 1.002c8.192 0 16.44 4.173 20.57 8.303 1.938 3.575 3.082 7.834 3.082 12.344s-1.144 8.769-3.149 12.48l0.068-0.136-325.546 576.936 206.021 379.051c1.958 3.58 3.106 7.846 3.106 12.378s-1.148 8.798-3.174 12.514l0.068-0.136c-5.419 4.971-12.608 8.066-20.528 8.247l-0.042 0.001h-148.386c-20.57 0-32.948-16.495-41.196-28.873l-210.151-383.237c12.378-16.44 329.664-580.955 329.664-580.955 8.248-16.44 20.626-28.818 41.251-28.818h148.33zM303.914 202.962c20.626 0 32.948 16.495 41.251 28.818l102.961 177.203c-8.192 8.248-160.708 280.165-160.708 280.165-8.192 12.434-20.57 28.929-41.196 28.929h-144.213c-7.977-0.171-15.196-3.268-20.644-8.264l0.019 0.017c-1.958-3.58-3.106-7.846-3.106-12.378s1.148-8.798 3.174-12.514l-0.068 0.136 152.46-276.090-98.887-173.030c-1.958-3.58-3.106-7.846-3.106-12.378s1.148-8.798 3.174-12.514l-0.068 0.136c5.43-4.98 12.649-8.090 20.586-8.247h148.425z"></path>
</svg>
