<svg width="300" height="41" viewBox="0 0 300 41" fill="none" xmlns="http://www.w3.org/2000/svg">
<g clip-path="url(#clip0_643_2)">
<mask id="mask0_643_2" style="mask-type:luminance" maskUnits="userSpaceOnUse" x="0" y="0" width="53" height="41">
<path d="M52.9854 0H0V40.1404H52.9854V0Z" fill="white"/>
</mask>
<g mask="url(#mask0_643_2)">
<path d="M7.6167 39.5584H30.2945L7.6167 18.9663V39.5584Z" fill="#538AEA"/>
<path d="M22.6248 0.334473H0L22.6248 20.8797V0.334473Z" fill="#538AEA"/>
<path d="M46.0643 16.297C46.7399 15.1128 47.4419 13.0858 47.4419 11.4333C47.4419 8.47629 46.2961 5.86047 43.7462 3.69958C41.0969 1.47179 37.845 0.334473 34.1227 0.334473H32.4338V9.70058H34.1227C35.6063 9.70058 36.9442 10.7977 36.9442 12.2294C36.9442 13.835 35.4606 14.8185 33.8976 14.9857C33.3611 15.0259 32.8776 15.066 32.4338 15.0928V22.3448C34.4009 22.3247 36.1494 22.2779 38.2225 22.3716C39.3683 22.4452 40.3419 22.8198 41.2692 23.6026C42.1103 24.3652 42.5209 25.2416 42.5209 26.3388C42.5209 28.5666 40.5472 30.1588 38.2755 30.1588H32.4338V39.5517H38.2755C42.4083 39.5517 46.0047 38.2873 48.5679 35.8119C51.0714 33.3701 52.3497 30.3528 52.3497 26.8874C52.3497 22.4318 49.8727 18.0899 46.0577 16.2836L46.0643 16.297Z" fill="white"/>
</g>
<path d="M105.649 7.9519V31.2634H99.1876L90.3291 20.6735V31.2634H82.6697V7.9519H89.13L97.9892 18.5426V7.9519H105.649Z" fill="#538AEA"/>
<path d="M109.444 7.95215H117.303V31.2637H109.444V7.95215Z" fill="#538AEA"/>
<path d="M126.495 30.2482C124.519 29.2161 122.97 27.7735 121.849 25.9188C120.728 24.0656 120.168 21.9614 120.168 19.6077C120.168 17.2548 120.728 15.1514 121.849 13.2974C122.97 11.4434 124.519 10 126.495 8.968C128.471 7.93522 130.691 7.41919 133.156 7.41919C135.421 7.41919 137.44 7.81939 139.217 8.6183C140.992 9.4172 142.458 10.5725 143.612 12.082L138.65 16.5108C137.207 14.691 135.509 13.78 133.556 13.78C131.912 13.78 130.592 14.3079 129.592 15.3622C128.593 16.4165 128.093 17.8317 128.093 19.6077C128.093 21.3845 128.593 22.7996 129.592 23.8539C130.592 24.909 131.912 25.4362 133.556 25.4362C135.509 25.4362 137.207 24.5259 138.65 22.7053L143.612 27.1342C142.458 28.6444 140.992 29.799 139.217 30.5979C137.44 31.3968 135.421 31.797 133.156 31.797C130.691 31.797 128.471 31.281 126.495 30.2482Z" fill="#538AEA"/>
<path d="M160.247 24.7202C161.035 24.2428 161.662 23.5656 162.128 22.6888C162.595 21.8119 162.828 20.785 162.828 19.6082C162.828 18.4314 162.595 17.4045 162.128 16.5277C161.662 15.6508 161.035 14.9737 160.247 14.4963C159.458 14.0188 158.576 13.7805 157.599 13.7805C156.621 13.7805 155.739 14.0188 154.952 14.4963C154.164 14.9737 153.536 15.6508 153.07 16.5277C152.604 17.4045 152.371 18.4314 152.371 19.6082C152.371 20.785 152.604 21.8119 153.07 22.6888C153.536 23.5656 154.164 24.2428 154.952 24.7202C155.739 25.1976 156.621 25.4359 157.599 25.4359C158.576 25.4359 159.458 25.1976 160.247 24.7202ZM150.838 30.2316C148.841 29.1884 147.275 27.7398 146.143 25.8859C145.011 24.0319 144.445 21.9389 144.445 19.6082C144.445 17.2768 145.011 15.1845 146.143 13.3306C147.275 11.4773 148.841 10.028 150.838 8.98483C152.837 7.9409 155.09 7.41968 157.599 7.41968C160.108 7.41968 162.362 7.9409 164.36 8.98483C166.358 10.028 167.923 11.4773 169.055 13.3306C170.188 15.1845 170.753 17.2768 170.753 19.6082C170.753 21.9389 170.188 24.0319 169.055 25.8859C167.923 27.7398 166.358 29.1884 164.36 30.2316C162.362 31.2748 160.108 31.7967 157.599 31.7967C155.09 31.7967 152.837 31.2748 150.838 30.2316Z" fill="#538AEA"/>
<path d="M198.66 23.9377C198.66 22.7171 197.794 22.106 196.063 22.106H191.334V25.7694H196.063C197.794 25.7694 198.66 25.1591 198.66 23.9377ZM191.334 13.4473V16.9109H194.997C196.706 16.9109 197.562 16.334 197.562 15.1795C197.562 14.0249 196.706 13.4473 194.997 13.4473H191.334ZM205.454 21.3071C206.208 22.2842 206.587 23.4603 206.587 24.8369C206.587 26.8794 205.742 28.4616 204.056 29.5828C202.368 30.7039 199.926 31.2645 196.728 31.2645H183.608V7.95215H196.063C199.17 7.95215 201.519 8.50752 203.106 9.61753C204.694 10.7276 205.487 12.2044 205.487 14.0472C205.487 15.1349 205.215 16.1113 204.672 16.977C204.127 17.8435 203.322 18.5429 202.257 19.0752C203.633 19.5868 204.699 20.33 205.454 21.3071Z" fill="white"/>
<path d="M228.733 25.3363V31.2643H209.351V7.9519H228.3V13.8799H217.077V16.6115H226.934V22.2728H217.077V25.3363H228.733Z" fill="white"/>
<path d="M245.451 22.8055V31.2645H237.591V22.7052L228.799 7.95215H237.091L241.853 16.0118L246.649 7.95215H254.242L245.451 22.8055Z" fill="white"/>
<path d="M274.623 25.3363V31.2643H255.241V7.9519H274.19V13.8799H262.968V16.6115H272.825V22.2728H262.968V25.3363H274.623Z" fill="white"/>
<path d="M290.774 14.7295C290.241 14.2521 289.442 14.0138 288.377 14.0138H285.512V19.4754H288.377C289.442 19.4754 290.241 19.2364 290.774 18.7589C291.307 18.2823 291.574 17.6103 291.574 16.7439C291.574 15.8781 291.307 15.2069 290.774 14.7295ZM287.644 25.4026H285.512V31.2645H277.653V7.95215H288.876C291.03 7.95215 292.906 8.30779 294.504 9.01835C296.103 9.7289 297.335 10.7498 298.201 12.0818C299.067 13.4138 299.5 14.9686 299.5 16.7439C299.5 18.4092 299.122 19.8638 298.368 21.1067C297.613 22.3503 296.524 23.3378 295.104 24.0706L300 31.2645H291.607L287.644 25.4026Z" fill="white"/>
</g>
<defs>
<clipPath id="clip0_643_2">
<rect width="300" height="41" fill="white"/>
</clipPath>
</defs>
</svg>
