<svg width="40" height="30" viewBox="0 0 40 30" fill="none" xmlns="http://www.w3.org/2000/svg">
<g clip-path="url(#clip0_642_2)">
<path d="M5.75 29.565H22.87L5.75 14.175V29.565Z" fill="#538AEA"/>
<path d="M17.08 0.25H0L17.08 15.605V0.25Z" fill="#538AEA"/>
<path d="M34.7751 12.18C35.2851 11.295 35.8151 9.78 35.8151 8.545C35.8151 6.335 34.9501 4.38 33.0251 2.765C31.0251 1.1 28.5701 0.25 25.7601 0.25H24.4851V7.25H25.7601C26.8801 7.25 27.8901 8.07 27.8901 9.14C27.8901 10.34 26.7701 11.075 25.5901 11.2C25.1851 11.23 24.8201 11.26 24.4851 11.28V16.7C25.9701 16.685 27.2901 16.65 28.8551 16.72C29.7201 16.775 30.4551 17.055 31.1551 17.64C31.7901 18.21 32.1001 18.865 32.1001 19.685C32.1001 21.35 30.6101 22.54 28.8951 22.54H24.4851V29.56H28.8951C32.0151 29.56 34.7301 28.615 36.6651 26.765C38.5551 24.94 39.5201 22.685 39.5201 20.095C39.5201 16.765 37.6501 13.52 34.7701 12.17L34.7751 12.18Z" fill="white"/>
</g>
<defs>
<clipPath id="clip0_642_2">
<rect width="40" height="30" fill="white"/>
</clipPath>
</defs>
</svg>
